<?xml version="1.0" encoding="UTF-8"?>
<svg width="1024px" height="1024px" viewBox="0 0 1024 1024" version="1.1" xmlns="http://www.w3.org/2000/svg" xmlns:xlink="http://www.w3.org/1999/xlink">
    <!-- Generator: Sketch 55 (78076) - https://sketchapp.com -->
    <title>画板</title>
    <desc>Created with Sketch.</desc>
    <g id="画板" stroke="none" stroke-width="1" fill="none" fill-rule="evenodd">
        <rect id="矩形" fill="#FFFFFF" x="0" y="0" width="1024" height="1024" rx="256"></rect>
        <circle id="椭圆形" fill="#EF717A" cx="511.5" cy="511.5" r="267.5"></circle>
        <g id="编组" transform="translate(107.000000, 101.000000)" fill="#EF717A">
            <ellipse id="椭圆形" cx="774.39653" cy="410.701701" rx="36" ry="36.0032885"></ellipse>
            <ellipse id="椭圆形" cx="36" cy="410.921227" rx="36" ry="36.0032885"></ellipse>
            <ellipse id="椭圆形" cx="410.883694" cy="36.0032885" rx="36" ry="36.0032885"></ellipse>
            <ellipse id="椭圆形" cx="410.883694" cy="785.839165" rx="36" ry="36.0032885"></ellipse>
            <ellipse id="椭圆形" transform="translate(735.541770, 598.379278) rotate(30.000000) translate(-735.541770, -598.379278) " cx="735.54177" cy="598.379278" rx="36" ry="36.0016442"></ellipse>
            <ellipse id="椭圆形" transform="translate(86.224165, 223.461339) rotate(30.000000) translate(-86.224165, -223.461339) " cx="86.2241652" cy="223.461339" rx="36" ry="36.0016442"></ellipse>
            <ellipse id="椭圆形" transform="translate(598.324814, 86.231850) rotate(30.000000) translate(-598.324814, -86.231850) " cx="598.324814" cy="86.2318498" rx="36" ry="36.0016442"></ellipse>
            <ellipse id="椭圆形" transform="translate(223.441121, 735.608767) rotate(30.000000) translate(-223.441121, -735.608767) " cx="223.441121" cy="735.608767" rx="36" ry="36.0016442"></ellipse>
            <ellipse id="椭圆形" transform="translate(598.323362, 735.606931) rotate(60.000000) translate(-598.323362, -735.606931) " cx="598.323362" cy="735.606931" rx="36" ry="35.9983559"></ellipse>
            <ellipse id="椭圆形" transform="translate(223.439668, 86.230014) rotate(60.000000) translate(-223.439668, -86.230014) " cx="223.439668" cy="86.230014" rx="36" ry="35.9983559"></ellipse>
            <ellipse id="椭圆形" transform="translate(735.540317, 223.459504) rotate(60.000000) translate(-735.540317, -223.459504) " cx="735.540317" cy="223.459504" rx="36" ry="35.9983559"></ellipse>
            <ellipse id="椭圆形" transform="translate(86.222713, 598.377442) rotate(60.000000) translate(-86.222713, -598.377442) " cx="86.2227127" cy="598.377442" rx="36" ry="35.9983559"></ellipse>
        </g>
        <g id="照片" transform="translate(334.000000, 334.000000)" fill="#FFFFFF" fill-rule="nonzero">
            <path d="M357,179.424134 C357,152.979689 339.505578,130.729391 315.610757,123.051971 C320.233267,114.521505 322.935657,104.995818 322.935657,95.0436081 C322.935657,79.1200717 316.748606,64.1917563 305.512351,52.9599761 C294.276096,41.7281959 279.341833,35.5436081 263.411952,35.5436081 C253.811355,35.5436081 244.63745,38.0316607 236.316932,42.3679809 C228.849801,17.9139785 206.377291,0 179.566733,0 C153.111753,0 130.85259,17.4874552 123.100996,41.4438471 C100.557371,29.4301075 71.9689243,32.6290323 52.9810757,51.609319 C41.7448207,62.8410992 35.5577689,77.7694146 35.5577689,93.692951 C35.5577689,103.289725 38.0468127,112.459976 42.3848606,120.77718 C17.9211155,128.241338 0,150.704898 0,177.504779 C0,203.949223 17.4944223,226.199522 41.4603586,233.948029 C29.4418327,256.482676 32.6420319,285.059737 51.6298805,304.040024 C62.8661355,315.271804 77.8715139,321.456392 93.7302789,321.456392 C103.330876,321.456392 112.504781,318.968339 120.825299,314.632019 C128.221315,339.086022 150.76494,357 177.575498,357 C204.030478,357 226.289641,339.512545 234.041235,315.62724 C242.5751,320.247909 252.104582,322.878136 262.060757,322.878136 C277.990637,322.878136 292.9249,316.693548 304.161155,305.461768 C315.39741,294.229988 321.584462,279.230585 321.584462,263.378136 C321.584462,253.781362 319.095418,244.611111 314.757371,236.293907 C339.078884,228.687575 357,206.224014 357,179.424134 Z M295.413944,62.9121864 C304.018924,71.5137395 308.71255,82.8876941 308.71255,94.9725209 C308.71255,104.071685 306.010159,112.815412 301.032072,120.208483 C299.823108,120.137395 298.685259,119.853047 297.405179,119.853047 L257.509363,119.853047 C248.61992,119.853047 240.299402,121.914576 232.761155,125.397849 C236.67251,117.507168 239.019323,108.692354 239.019323,99.3088411 L239.019323,59.4289128 C239.019323,58.5758662 238.805976,57.7939068 238.805976,57.0119474 C256.229283,46.1356033 280.550797,48.0549582 295.413944,62.9121864 L295.413944,62.9121864 Z M201.541434,267.074671 C187.460558,252.999403 184.758167,231.957587 193.078685,215.038829 C210.359761,221.436679 222.733865,237.928913 222.733865,257.40681 L222.733865,288.329749 L201.541434,267.074671 L201.541434,267.074671 Z M177.931076,214.25687 C177.646614,213.545998 177.504382,212.764038 177.291036,212.053166 L177.433267,212.053166 C177.85996,212.053166 178.286653,212.195341 178.642231,212.195341 C178.357769,212.835125 178.215538,213.617085 177.931076,214.25687 L177.931076,214.25687 Z M167.192629,233.521505 C167.192629,245.677419 162.499004,257.051374 153.894024,265.58184 L132.061554,287.405615 L132.061554,257.40681 C132.061554,237.502389 145.075697,220.725806 162.925697,214.612306 C165.628088,220.512545 167.192629,226.839307 167.192629,233.521505 L167.192629,233.521505 Z M155.316335,89.6409797 C169.397211,103.716249 172.099602,124.758065 163.707968,141.676822 C146.426892,135.278973 134.052789,118.786738 134.052789,99.3088411 L134.052789,68.385902 L155.316335,89.6409797 Z M178.926693,142.458781 C179.211155,143.169654 179.353386,143.951613 179.637849,144.662485 L179.495618,144.662485 C179.068924,144.662485 178.642231,144.520311 178.215538,144.520311 C178.5,143.880526 178.713347,143.098566 178.926693,142.458781 L178.926693,142.458781 Z M189.736255,123.194146 C189.736255,111.038232 194.42988,99.6642772 203.034861,91.1338112 L224.867331,69.3100358 L224.867331,99.3799283 C224.867331,119.284349 211.853187,136.060932 194.003187,142.174432 C191.229681,136.203106 189.736255,129.876344 189.736255,123.194146 L189.736255,123.194146 Z M212.137649,179.424134 C212.137649,178.997611 212.27988,178.642174 212.27988,178.286738 C212.991036,178.571087 213.702191,178.642174 214.413347,178.926523 C213.702191,179.139785 212.91992,179.353047 212.208765,179.566308 C212.137649,179.495221 212.137649,179.424134 212.137649,179.424134 L212.137649,179.424134 Z M198.696813,186.959379 C196.207769,188.807646 193.718725,190.655914 191.514143,192.859618 C189.665139,194.707885 188.242829,196.769415 186.678287,198.759857 C183.620319,198.262246 180.562351,197.835723 177.433267,197.835723 C174.873108,197.835723 172.384064,198.262246 169.89502,198.617682 C168.046016,196.12963 166.197012,193.641577 163.99243,191.437873 C162.143426,189.589606 160.081076,188.167861 158.089841,186.603943 C158.587649,183.547192 159.014343,180.561529 159.014343,177.362605 C159.014343,174.732378 158.587649,172.244325 158.232072,169.756272 C160.721116,167.979092 163.210159,166.130824 165.485857,163.856033 C167.334861,162.007766 168.757171,159.946237 170.321713,157.955795 C173.379681,158.453405 176.437649,158.879928 179.566733,158.879928 C182.126892,158.879928 184.615936,158.453405 187.10498,158.097969 C188.953984,160.586022 190.802988,163.074074 193.00757,165.277778 C194.856574,167.126045 196.918924,168.54779 198.910159,170.111708 C198.412351,173.168459 197.985657,176.154122 197.985657,179.353047 C197.985657,181.983274 198.412351,184.471326 198.696813,186.959379 L198.696813,186.959379 Z M202.537052,202.100956 C202.821514,202.811828 203.248207,203.451613 203.532669,204.162485 C202.821514,203.807049 202.181474,203.380526 201.470319,203.02509 C201.541434,202.954002 201.541434,202.954002 201.541434,202.882915 C201.825896,202.598566 202.181474,202.385305 202.537052,202.100956 L202.537052,202.100956 Z M153.894024,201.461171 C154.178486,201.74552 154.391833,202.100956 154.676295,202.456392 C153.965139,202.740741 153.3251,203.167264 152.613944,203.451613 C152.969522,202.740741 153.396215,202.100956 153.751793,201.390084 C153.822908,201.390084 153.822908,201.390084 153.894024,201.461171 L153.894024,201.461171 Z M144.72012,177.291517 C144.72012,177.718041 144.577888,178.073477 144.577888,178.5 C143.866733,178.215651 143.155578,178.073477 142.444422,177.860215 C143.155578,177.575866 143.937849,177.504779 144.72012,177.22043 L144.72012,177.291517 L144.72012,177.291517 Z M154.391833,154.614695 C154.107371,153.903823 153.680677,153.264038 153.396215,152.624253 C154.107371,152.979689 154.74741,153.406213 155.458566,153.761649 C155.458566,153.761649 155.38745,153.832736 155.38745,153.903823 C155.031873,154.117085 154.676295,154.330346 154.391833,154.614695 L154.391833,154.614695 Z M203.034861,155.25448 C202.750398,154.970131 202.537052,154.614695 202.25259,154.259259 C202.963745,153.97491 203.603785,153.548387 204.243825,153.264038 C203.888247,153.97491 203.461554,154.614695 203.105976,155.325568 C203.105976,155.325568 203.034861,155.325568 203.034861,155.25448 L203.034861,155.25448 Z M142.088845,162.647551 C125.376693,169.969534 104.468725,167.126045 91.1701195,153.832736 L69.3376494,132.008669 L99.4195219,132.008961 C119.189641,131.937873 135.972908,144.875747 142.088845,162.647551 Z M141.804382,193.001792 C135.403984,210.275986 118.905179,222.716249 99.4195219,222.716249 L68.4842629,222.716249 L89.7478088,201.461171 C98.3527888,192.859618 109.731275,188.167861 121.820916,188.167861 C128.861355,188.167861 135.617331,189.945042 141.804382,193.001792 L141.804382,193.001792 Z M214.697809,193.854839 C220.600398,191.153524 226.929681,189.589606 233.614542,189.589606 C245.775299,189.589606 257.153785,194.281362 265.687649,202.882915 L287.52012,224.70698 L257.509363,224.706691 C237.597012,224.777778 220.813745,211.768817 214.697809,193.854839 L214.697809,193.854839 Z M215.124502,163.571685 C221.596016,146.368578 238.094821,134.07049 257.509363,134.07049 L288.444622,134.07049 L267.181076,155.25448 C253.598008,168.903226 232.05,171.533453 215.124502,163.571685 L215.124502,163.571685 Z M179.495618,14.0752688 C201.470319,14.0752688 219.889243,29.7855436 224.013944,50.614098 C223.089442,51.3960573 222.093825,52.0358423 221.240438,52.8888889 L193.00757,81.1105137 C186.820518,87.2951016 182.340239,94.6170848 179.424502,102.507766 C176.57988,94.1905615 172.028486,86.2998805 165.414741,79.6176822 L137.181873,51.3960573 C136.541833,50.7562724 135.830677,50.3297491 135.190637,49.7610514 C139.599801,29.4301075 157.734263,14.0752688 179.495618,14.0752688 Z M49.6386454,93.5507766 C49.6386454,81.3948626 54.3322709,70.020908 62.937251,61.4904421 C71.7555777,52.6756272 83.4185259,48.1971326 95.0103586,48.1971326 C103.828685,48.1971326 112.647012,50.7562724 120.256375,55.874552 C120.185259,57.0830346 119.900797,58.2204301 119.900797,59.4289128 L119.900797,99.3088411 C119.900797,108.194743 121.963147,116.511947 125.447809,124.047192 C117.553984,120.137395 108.735657,117.791517 99.3484064,117.791517 L59.4525896,117.791517 C58.5992032,117.791517 57.7458167,118.004779 56.8924303,118.075866 C52.1988048,110.753883 49.6386454,102.365591 49.6386454,93.5507766 L49.6386454,93.5507766 Z M14.0808765,177.291517 C14.0808765,155.325568 29.7974104,136.913978 50.6342629,132.79092 C51.4165339,133.715054 52.0565737,134.710275 52.9099602,135.563321 L81.1428287,163.784946 C87.400996,170.040621 94.797012,174.448029 102.548606,177.362605 C94.0858566,180.27718 86.1920319,184.826762 79.6494024,191.366786 L51.4165339,219.588411 C50.776494,220.228196 50.3498008,220.939068 49.7808765,221.578853 C29.4418327,217.171446 14.0808765,199.044205 14.0808765,177.291517 L14.0808765,177.291517 Z M61.5149402,293.803465 C45.9406375,278.235364 44.0916335,254.136798 55.8968127,236.507168 C57.1057769,236.578256 58.2436255,236.862605 59.4525896,236.862605 L99.3484064,236.862605 C108.237849,236.862605 116.558367,234.801075 124.096614,231.317802 C120.185259,239.208483 117.838446,248.023297 117.838446,257.40681 L117.838446,297.286738 C117.838446,298.139785 118.051793,298.921744 118.051793,299.703704 C100.699602,310.580048 76.3069721,308.660693 61.5149402,293.803465 L61.5149402,293.803465 Z M177.433267,342.640382 C155.458566,342.640382 137.039641,326.930108 132.91494,306.101553 C133.839442,305.319594 134.83506,304.679809 135.688446,303.826762 L163.921315,275.605137 C170.108367,269.42055 174.588645,262.098566 177.504382,254.207885 C180.349004,262.52509 184.900398,270.415771 191.514143,277.097969 L219.747012,305.319594 C220.387052,305.959379 221.098207,306.385902 221.738247,306.9546 C217.257968,327.356631 199.123506,342.640382 177.433267,342.640382 Z M307.219124,263.164875 C307.219124,275.320789 302.525498,286.694743 293.920518,295.225209 C278.915139,310.295699 254.024701,312.072879 236.601394,300.770012 C236.67251,299.561529 236.956972,298.495221 236.956972,297.286738 L236.956972,257.40681 C236.956972,248.520908 234.894622,240.203704 231.40996,232.668459 C239.303785,236.578256 248.122112,238.924134 257.509363,238.924134 L297.405179,238.924134 C298.258566,238.924134 299.111952,238.710872 299.965339,238.639785 C304.658964,245.961768 307.219124,254.35006 307.219124,263.164875 L307.219124,263.164875 Z M306.223506,223.853644 C305.441235,222.92951 304.801195,221.934289 303.947809,221.081243 L275.71494,192.859618 C269.599004,186.67503 262.274104,182.196535 254.309163,179.281959 C262.771912,176.367384 270.665737,171.817802 277.137251,165.277778 L305.37012,137.056153 C306.010159,136.416368 306.436853,135.705496 307.005777,135.065711 C327.415936,139.473118 342.776892,157.671446 342.776892,179.353047 C342.776892,201.390084 327.060359,219.730585 306.223506,223.853644 L306.223506,223.853644 Z" id="形状"></path>
        </g>
    </g>
</svg>